<svg xmlns="http://www.w3.org/2000/svg" width="850" height="714" viewBox="0 0 850 714">
  <style>
    @import url('https://fonts.googleapis.com/css2?family=Fira+Code:wght@400;700');
    text { font-family: 'Fira Code', 'SFMono-Regular', Consolas, 'Liberation Mono', Menlo, monospace; }
  </style>


  <rect width="850" height="714" rx="10" fill="#ffffff" stroke="#d0d7de" stroke-width="1" />

  
  <rect width="850" height="36" rx="10" fill="#f6f8fa" />
  <rect x="0" y="26" width="850" height="10" fill="#f6f8fa" />
  <line x1="0" y1="36" x2="850" y2="36" stroke="#d0d7de" stroke-width="1" />

  
  <text x="786" y="24" font-size="16" fill="#656d76">─</text>
  <text x="806" y="23" font-size="14" fill="#656d76">□</text>
  <text x="826" y="24" font-size="16" fill="#f85149">✕</text>

  
  <text x="425" y="23" text-anchor="middle" font-size="12" fill="#656d76">david@netviper.gr — bash</text>

  
  <text font-size="14" fill="#1a7f37" xml:space="preserve">
    <tspan x="30" y="56">@@@  @@@  @@@@@@@@  @@@@@@@  @@@  @@@  @@@  @@@@@@@   @@@@@@@@  @@@@@@@</tspan>
    <tspan x="30" y="72">@@@@ @@@  @@@@@@@@  @@@@@@@  @@@  @@@  @@@  @@@@@@@@  @@@@@@@@  @@@@@@@@</tspan>
    <tspan x="30" y="88">@@!@!@@@  @@!         @@!    @@!  @@@  @@!  @@!  @@@  @@!       @@!  @@@</tspan>
    <tspan x="30" y="104">!@!!@!@!  !@!         !@!    !@!  @!@  !@!  !@!  @!@  !@!       !@!  @!@</tspan>
    <tspan x="30" y="120">@!@ !!@!  @!!!:!      @!!    @!@  !@!  !!@  @!@@!@!   @!!!:!    @!@!!@!</tspan>
    <tspan x="30" y="136">!@!  !!!  !!!!!:      !!!    !@!  !!!  !!!  !!@!!!    !!!!!:    !!@!@!</tspan>
    <tspan x="30" y="152">!!:  !!!  !!:         !!:    :!:  !!:  !!:  !!:       !!:       !!: :!!</tspan>
    <tspan x="30" y="168">:!:  !:!  :!:         :!:     ::!!:!   :!:  :!:       :!:       :!:  !:!</tspan>
    <tspan x="30" y="184"> ::   ::   :: ::::     ::      ::::     ::   ::        :: ::::  ::   :::</tspan>
    <tspan x="30" y="200">::    :   : :: ::      :        :      :     :        : :: ::    :   : :</tspan>
  </text>

  <text x="30" y="224" font-size="13" fill="#656d76">Building the infrastructure AI systems are missing</text>

  <text x="30" y="248" font-size="14" font-weight="bold" fill="#bf3100">david</text>
  <text x="72" y="248" font-size="14" fill="#1f2328">@</text>
  <text x="82" y="248" font-size="14" font-weight="bold" fill="#bf3100">netviper.gr</text>
  <text x="30" y="266" font-size="14" fill="#d0d7de">──────────────────────────────────────────</text>


  <text x="30" y="286" font-size="14" fill="#0550ae">Role</text>
  <text x="145" y="286" font-size="14" fill="#1f2328">Founder, NetViper</text>
  <text x="30" y="304" font-size="14" fill="#0550ae">Background</text>
  <text x="145" y="304" font-size="14" fill="#1f2328">USMC Veteran</text>
  <text x="30" y="322" font-size="14" fill="#0550ae">Location</text>
  <text x="145" y="322" font-size="14" fill="#1f2328">Athens, Greece</text>
  <text x="30" y="340" font-size="14" fill="#0550ae">Web</text>
  <text x="145" y="340" font-size="14" fill="#1f2328">netviper.gr</text>


  <text x="30" y="374" font-size="14" font-weight="bold" fill="#bf3100">Stack</text>
  <text x="30" y="392" font-size="14" fill="#d0d7de">──────────────────────────────────────────</text>
  <text x="30" y="412" font-size="14" fill="#0550ae">Languages</text>
  <text x="145" y="412" font-size="14" fill="#1f2328">Rust · Python · CUDA · PTX</text>
  <text x="30" y="430" font-size="14" fill="#0550ae">Focus</text>
  <text x="145" y="430" font-size="14" fill="#1f2328">GPU-accelerated AI infra · ML systems · ultra-low-latency Rust</text>


  <text x="30" y="464" font-size="14" font-weight="bold" fill="#bf3100">Projects</text>
  <text x="30" y="482" font-size="14" fill="#d0d7de">──────────────────────────────────────────</text>
  <text x="30" y="502" font-size="14" fill="#1a7f37">Kaio</text>
  <text x="80" y="502" font-size="14" fill="#656d76">—</text>
  <text x="100" y="502" font-size="14" fill="#1f2328">Rust-native GPU kernels, compiled to PTX (OSS)</text>
  <text x="30" y="520" font-size="14" fill="#1a7f37">Talos</text>
  <text x="80" y="520" font-size="14" fill="#656d76">—</text>
  <text x="100" y="520" font-size="14" fill="#1f2328">HW-bound licensing for Rust</text>
  <text x="30" y="538" font-size="14" fill="#1a7f37">ML/AI</text>
  <text x="80" y="538" font-size="14" fill="#656d76">—</text>
  <text x="100" y="538" font-size="14" fill="#1f2328">Custom solutions</text>


  <text x="30" y="572" font-size="14" font-weight="bold" fill="#bf3100">GitHub</text>
  <text x="30" y="590" font-size="14" fill="#d0d7de">──────────────────────────────────────────</text>
  <text x="30" y="610" font-size="14" fill="#0550ae">Repos</text>
  <text x="85" y="610" font-size="14" fill="#1f2328" id="repos_data">79</text>
  <text x="140" y="610" font-size="14" fill="#0550ae">Stars</text>
  <text x="195" y="610" font-size="14" fill="#1f2328" id="stars_data">85</text>
  <text x="260" y="610" font-size="14" fill="#0550ae">Commits</text>
  <text x="335" y="610" font-size="14" fill="#1f2328" id="commits_data">3186</text>


  <rect x="30" y="630" width="150" height="10" rx="3" fill="#eaeef2" />
  <rect x="30" y="630" width="142" height="10" rx="3" fill="#dea584" id="rust_bar" />
  <text x="190" y="640" font-size="12" fill="#1f2328">Rust</text>
  <text x="260" y="640" font-size="12" fill="#656d76" id="rust_pct">95%</text>

  <rect x="30" y="650" width="150" height="10" rx="3" fill="#eaeef2" />
  <rect x="30" y="650" width="3" height="10" rx="3" fill="#3572a5" id="python_bar" />
  <text x="190" y="660" font-size="12" fill="#1f2328">Python</text>
  <text x="260" y="660" font-size="12" fill="#656d76" id="python_pct">2%</text>

  <rect x="30" y="670" width="150" height="10" rx="3" fill="#eaeef2" />
  <rect x="30" y="670" width="4" height="10" rx="3" fill="#656d76" id="other_bar" />
  <text x="190" y="680" font-size="12" fill="#1f2328">Other</text>
  <text x="260" y="680" font-size="12" fill="#656d76" id="other_pct">3%</text>
</svg>